<svg width="197" height="32" viewBox="0 0 197 32" fill="none" xmlns="http://www.w3.org/2000/svg">
<path d="M62.3857 25.3114V4.45335C62.3857 4.22694 62.2159 4.05713 61.9895 4.05713H60.5178C60.2914 4.05713 60.1216 4.22694 60.1216 4.45335V27.5756C60.1216 27.802 60.2914 27.9718 60.5178 27.9718H73.6213C73.8478 27.9718 74.0176 27.802 74.0176 27.5756V26.1322C74.0176 25.9058 73.8478 25.736 73.6213 25.736H62.7819C62.5555 25.736 62.3857 25.5662 62.3857 25.3398V25.3114Z" fill="white"/>
<path d="M89.5549 4.05713H88.0549C87.8361 4.05713 87.6587 4.23452 87.6587 4.45335V27.6039C87.6587 27.8227 87.8361 28.0001 88.0549 28.0001H89.5549C89.7737 28.0001 89.9511 27.8227 89.9511 27.6039V4.45335C89.9511 4.23452 89.7737 4.05713 89.5549 4.05713Z" fill="white"/>
<path d="M162.374 4.05713H160.874C160.655 4.05713 160.478 4.23452 160.478 4.45335V27.6039C160.478 27.8227 160.655 28.0001 160.874 28.0001H162.374C162.593 28.0001 162.77 27.8227 162.77 27.6039V4.45335C162.77 4.23452 162.593 4.05713 162.374 4.05713Z" fill="white"/>
<path d="M20.245 4.05713H4.39622C4.16981 4.05713 4 4.22694 4 4.45335V5.6703C4 5.89671 4.16981 6.06652 4.39622 6.06652H10.764C10.9904 6.06652 11.1602 6.23633 11.1602 6.46275V27.5473C11.1602 27.7737 11.3301 27.9435 11.5565 27.9435H13.0281C13.2545 27.9435 13.4244 27.7737 13.4244 27.5473V6.46275C13.4244 6.23633 13.5942 6.06652 13.8206 6.06652H20.1884C20.4148 6.06652 20.5846 5.89671 20.5846 5.6703V4.45335C20.5846 4.22694 20.4148 4.05713 20.1884 4.05713H20.245Z" fill="white"/>
<path d="M119.611 4.05713H103.762C103.536 4.05713 103.366 4.22694 103.366 4.45335V5.6703C103.366 5.89671 103.536 6.06652 103.762 6.06652H110.13C110.356 6.06652 110.526 6.23633 110.526 6.46275V27.5473C110.526 27.7737 110.696 27.9435 110.922 27.9435H112.394C112.62 27.9435 112.79 27.7737 112.79 27.5473V6.46275C112.79 6.23633 112.96 6.06652 113.186 6.06652H119.554C119.781 6.06652 119.95 5.89671 119.95 5.6703V4.45335C119.95 4.22694 119.781 4.05713 119.554 4.05713H119.611Z" fill="white"/>
<path d="M145.846 27.3774C145.988 27.6604 145.79 27.9717 145.478 27.9717H143.865C143.724 27.9717 143.582 27.8868 143.497 27.7453L140.526 22.3397C140.469 22.1982 140.328 22.1133 140.158 22.1133H134.158C133.931 22.1133 133.762 22.2831 133.762 22.5095V27.5189C133.762 27.7453 133.592 27.9151 133.365 27.9151H131.894C131.667 27.9151 131.498 27.7453 131.498 27.5189V20.7549C131.498 20.4435 131.752 20.2171 132.035 20.2171H138.997C139.309 20.2171 139.648 20.1322 139.931 19.9907C142.79 18.7738 144.856 16.1983 144.827 13.1701C144.827 10.1418 142.818 7.3117 139.931 6.12304C138.545 5.52871 135.545 5.75513 133.847 5.72682C133.62 5.72682 133.45 5.89663 133.45 6.12304V8.92488C133.45 9.15129 133.281 9.32109 133.054 9.32109H131.95C131.724 9.32109 131.554 9.15129 131.554 8.92488V4.39666C131.554 4.17025 131.724 4.00044 131.95 4.00044H137.667C147.148 3.91553 150.544 16.17 142.478 21.0662L145.903 27.3491H145.846V27.3774Z" fill="white"/>
<path d="M191.666 4.05713C191.978 4.05713 192.176 4.39674 192.034 4.65145L185.95 15.6607L184.648 18.0097L179.242 27.802C179.157 27.9435 179.044 28.0001 178.874 28.0001H177.204C176.893 28.0001 176.695 27.6605 176.837 27.4058L183.318 15.6607L177.233 4.65145C177.091 4.36844 177.289 4.05713 177.601 4.05713H179.27C179.412 4.05713 179.553 4.14203 179.638 4.25523L184.648 13.3117L189.657 4.25523C189.742 4.11373 189.855 4.05713 190.025 4.05713H191.695H191.666Z" fill="white"/>
<path d="M192.063 28.0003H190.393C190.251 28.0003 190.11 27.9154 190.025 27.8022L186.346 21.1231C186.289 21.0099 186.289 20.8401 186.346 20.7269L187.166 19.2269C187.308 18.9439 187.732 18.9439 187.874 19.2269L192.402 27.406C192.544 27.689 192.346 28.0003 192.034 28.0003H192.063Z" fill="#F87A13"/>
<path d="M48.3767 27.5754C48.3767 27.8018 48.1786 27.9999 47.9522 27.9999H46.7069C46.5371 27.9999 46.3673 27.8867 46.3107 27.7169L46.0843 27.0943C45.3485 25.1415 43.9051 23.4717 41.9806 22.5378C40.9618 22.0567 39.858 21.8019 38.726 21.8019C37.5939 21.8019 36.4902 22.0567 35.4713 22.5378C33.5468 23.4434 32.1034 25.1132 31.3676 27.0943L31.1412 27.7169C31.0846 27.8867 30.9148 27.9999 30.745 27.9999H29.4997C29.2733 27.9999 29.0752 27.8018 29.0752 27.5754V27.3207C29.0752 27.1226 29.245 26.6132 29.4148 26.0472C29.5563 25.5943 29.7544 25.1415 29.9808 24.717C30.0091 24.6321 30.0657 24.5189 30.1223 24.434C30.1223 24.434 30.1506 24.3774 30.1789 24.3491C30.9714 22.9906 32.1317 21.8586 33.5751 21.0944H33.6317C33.6317 21.0944 33.6883 21.0944 33.7166 21.0661C33.7449 21.0661 33.7732 21.0378 33.8298 21.0095C34.5657 20.6699 35.3298 20.3869 36.1505 20.1888C36.9713 19.9907 37.8486 19.9058 38.7543 19.9058C40.5656 19.9058 42.2353 20.302 43.6787 21.0095C43.707 21.0095 43.7353 21.0378 43.7919 21.0661C43.7919 21.0661 43.8485 21.0661 43.8768 21.0944H43.9334C45.3768 21.8302 46.5371 22.9623 47.3296 24.3491C47.3296 24.3491 47.3579 24.4057 47.3862 24.434C47.4428 24.5189 47.4994 24.6038 47.5277 24.717C47.7541 25.1415 47.9239 25.5943 48.0937 26.0472C48.2635 26.5849 48.4333 27.1226 48.4333 27.3207V27.5754H48.3767Z" fill="#F87A13"/>
<path d="M47.4995 24.7454C47.4712 24.6605 47.4146 24.5473 47.358 24.4624C47.358 24.4624 47.3297 24.4058 47.3014 24.3775C46.5089 23.019 45.3486 21.887 43.9052 21.1228H43.8486C43.8486 21.1228 43.792 21.1228 43.7637 21.0945L38.8676 7.59478H38.5846L33.6884 21.0945C33.6884 21.0945 33.6318 21.0945 33.6035 21.1228H33.5469C32.1035 21.8587 30.9432 22.9907 30.1507 24.3775C30.1507 24.3775 30.1224 24.4341 30.0941 24.4624C30.0375 24.5473 29.9809 24.6322 29.9526 24.7454L37.5657 4.31182C37.6223 4.14201 37.7921 4.02881 37.9619 4.02881H39.4619C39.6317 4.02881 39.8015 4.14201 39.8581 4.31182L47.4712 24.7454H47.4995Z" fill="white"/>
</svg>
